<mxfile host="Electron" agent="Mozilla/5.0 (Windows NT 10.0; Win64; x64) AppleWebKit/537.36 (KHTML, like Gecko) draw.io/27.0.9 Chrome/134.0.6998.205 Electron/35.4.0 Safari/537.36" version="27.0.9">
  <diagram name="Page-1" id="gW7X5l3pM9PUabElACM9">
    <mxGraphModel dx="2135" dy="1057" grid="0" gridSize="10" guides="1" tooltips="1" connect="1" arrows="1" fold="1" page="1" pageScale="1" pageWidth="827" pageHeight="1169" background="#ffffff" math="0" shadow="0">
      <root>
        <mxCell id="0" />
        <mxCell id="1" parent="0" />
        <mxCell id="p1Tyolbjlcrftdn2_OF1-1" value="&lt;font style=&quot;font-size: 16px; color: rgb(0, 0, 0);&quot;&gt;user&lt;/font&gt;" style="shape=umlActor;verticalLabelPosition=bottom;verticalAlign=top;html=1;outlineConnect=0;strokeColor=#36393d;fillColor=#f9f7ed;" parent="1" vertex="1">
          <mxGeometry x="17" y="54.5" width="30" height="61" as="geometry" />
        </mxCell>
        <mxCell id="p1Tyolbjlcrftdn2_OF1-4" value="&lt;font style=&quot;color: rgb(0, 0, 0); font-size: 16px;&quot;&gt;Instructor&lt;/font&gt;" style="shape=umlActor;verticalLabelPosition=bottom;verticalAlign=top;html=1;outlineConnect=0;strokeColor=#36393d;fillColor=#f9f7ed;" parent="1" vertex="1">
          <mxGeometry x="25" y="828" width="30" height="60" as="geometry" />
        </mxCell>
        <mxCell id="p1Tyolbjlcrftdn2_OF1-5" value="&lt;font style=&quot;color: rgb(0, 0, 0); font-size: 16px;&quot;&gt;Student&lt;/font&gt;" style="shape=umlActor;verticalLabelPosition=bottom;verticalAlign=top;html=1;outlineConnect=0;strokeColor=#36393d;fillColor=#f9f7ed;" parent="1" vertex="1">
          <mxGeometry x="17" y="373" width="30" height="60" as="geometry" />
        </mxCell>
        <mxCell id="p1Tyolbjlcrftdn2_OF1-13" value="" style="rounded=0;whiteSpace=wrap;html=1;strokeColor=#000000;fillColor=none;" parent="1" vertex="1">
          <mxGeometry x="80" y="15" width="688" height="1077" as="geometry" />
        </mxCell>
        <mxCell id="p1Tyolbjlcrftdn2_OF1-14" value="" style="endArrow=block;endFill=0;endSize=12;html=1;rounded=0;strokeColor=#000000;entryX=1;entryY=1;entryDx=0;entryDy=0;entryPerimeter=0;" parent="1" source="p1Tyolbjlcrftdn2_OF1-4" target="p1Tyolbjlcrftdn2_OF1-1" edge="1">
          <mxGeometry width="160" relative="1" as="geometry">
            <mxPoint x="279" y="278" as="sourcePoint" />
            <mxPoint x="105" y="149" as="targetPoint" />
          </mxGeometry>
        </mxCell>
        <mxCell id="p1Tyolbjlcrftdn2_OF1-15" value="" style="endArrow=block;endFill=0;endSize=12;html=1;rounded=0;strokeColor=#000000;" parent="1" source="p1Tyolbjlcrftdn2_OF1-5" target="p1Tyolbjlcrftdn2_OF1-1" edge="1">
          <mxGeometry width="160" relative="1" as="geometry">
            <mxPoint x="65" y="457" as="sourcePoint" />
            <mxPoint x="87" y="149" as="targetPoint" />
          </mxGeometry>
        </mxCell>
        <mxCell id="p1Tyolbjlcrftdn2_OF1-19" value="&lt;font style=&quot;color: rgb(0, 0, 0);&quot;&gt;log in&amp;nbsp;&lt;/font&gt;" style="ellipse;whiteSpace=wrap;html=1;fillColor=#f5f5f5;strokeColor=#000000;fontColor=#333333;" parent="1" vertex="1">
          <mxGeometry x="127" y="25" width="120" height="41" as="geometry" />
        </mxCell>
        <mxCell id="p1Tyolbjlcrftdn2_OF1-21" value="&lt;font style=&quot;color: rgb(0, 0, 0);&quot;&gt;sign up&lt;/font&gt;" style="ellipse;whiteSpace=wrap;html=1;fillColor=#f5f5f5;strokeColor=#000000;fontColor=#333333;" parent="1" vertex="1">
          <mxGeometry x="127" y="73.5" width="120" height="41" as="geometry" />
        </mxCell>
        <mxCell id="p1Tyolbjlcrftdn2_OF1-24" value="" style="endArrow=none;html=1;rounded=0;entryX=0;entryY=0.5;entryDx=0;entryDy=0;exitX=0.5;exitY=0.5;exitDx=0;exitDy=0;exitPerimeter=0;fillColor=#f5f5f5;strokeColor=#666666;" parent="1" source="p1Tyolbjlcrftdn2_OF1-1" target="p1Tyolbjlcrftdn2_OF1-19" edge="1">
          <mxGeometry width="50" height="50" relative="1" as="geometry">
            <mxPoint x="184" y="109" as="sourcePoint" />
            <mxPoint x="234" y="59" as="targetPoint" />
          </mxGeometry>
        </mxCell>
        <mxCell id="p1Tyolbjlcrftdn2_OF1-25" value="" style="endArrow=none;html=1;rounded=0;entryX=0;entryY=0.5;entryDx=0;entryDy=0;exitX=0.5;exitY=0.5;exitDx=0;exitDy=0;exitPerimeter=0;fillColor=#f5f5f5;strokeColor=#666666;" parent="1" source="p1Tyolbjlcrftdn2_OF1-1" target="p1Tyolbjlcrftdn2_OF1-21" edge="1">
          <mxGeometry width="50" height="50" relative="1" as="geometry">
            <mxPoint x="146" y="144" as="sourcePoint" />
            <mxPoint x="272" y="96" as="targetPoint" />
          </mxGeometry>
        </mxCell>
        <mxCell id="p1Tyolbjlcrftdn2_OF1-28" value="&lt;font style=&quot;color: rgb(0, 0, 0);&quot;&gt;Search Courses&lt;/font&gt;" style="ellipse;whiteSpace=wrap;html=1;fillColor=#f5f5f5;strokeColor=#000000;fontColor=#333333;" parent="1" vertex="1">
          <mxGeometry x="114" y="142" width="120" height="41" as="geometry" />
        </mxCell>
        <mxCell id="p1Tyolbjlcrftdn2_OF1-29" value="&lt;font style=&quot;color: rgb(0, 0, 0);&quot;&gt;View Grades&lt;/font&gt;" style="ellipse;whiteSpace=wrap;html=1;fillColor=#f5f5f5;strokeColor=#000000;fontColor=#333333;" parent="1" vertex="1">
          <mxGeometry x="122" y="296" width="120" height="41" as="geometry" />
        </mxCell>
        <mxCell id="p1Tyolbjlcrftdn2_OF1-30" value="&lt;font style=&quot;color: rgb(0, 0, 0);&quot;&gt;Update Profile&lt;/font&gt;" style="ellipse;whiteSpace=wrap;html=1;fillColor=#f5f5f5;strokeColor=#000000;fontColor=#333333;" parent="1" vertex="1">
          <mxGeometry x="88" y="479" width="120" height="41" as="geometry" />
        </mxCell>
        <mxCell id="p1Tyolbjlcrftdn2_OF1-32" value="&lt;font style=&quot;color: rgb(0, 0, 0);&quot;&gt;Submit Assignments&lt;/font&gt;" style="ellipse;whiteSpace=wrap;html=1;fillColor=#f5f5f5;strokeColor=#000000;fontColor=#333333;" parent="1" vertex="1">
          <mxGeometry x="122" y="414" width="120" height="41" as="geometry" />
        </mxCell>
        <mxCell id="p1Tyolbjlcrftdn2_OF1-33" value="&lt;font style=&quot;color: rgb(0, 0, 0);&quot;&gt;Download Materials&lt;/font&gt;" style="ellipse;whiteSpace=wrap;html=1;fillColor=#f5f5f5;strokeColor=#000000;fontColor=#333333;" parent="1" vertex="1">
          <mxGeometry x="127" y="347" width="120" height="41" as="geometry" />
        </mxCell>
        <mxCell id="p1Tyolbjlcrftdn2_OF1-34" value="&lt;font style=&quot;color: rgb(0, 0, 0);&quot;&gt;Contact Instructor&lt;/font&gt;" style="ellipse;whiteSpace=wrap;html=1;fillColor=#f5f5f5;strokeColor=#000000;fontColor=#333333;" parent="1" vertex="1">
          <mxGeometry x="239" y="377" width="120" height="41" as="geometry" />
        </mxCell>
        <mxCell id="p1Tyolbjlcrftdn2_OF1-35" value="&lt;font style=&quot;color: rgb(0, 0, 0);&quot;&gt;View Course Content&lt;/font&gt;" style="ellipse;whiteSpace=wrap;html=1;fillColor=#f5f5f5;strokeColor=#000000;fontColor=#333333;" parent="1" vertex="1">
          <mxGeometry x="135" y="241" width="120" height="41" as="geometry" />
        </mxCell>
        <mxCell id="p1Tyolbjlcrftdn2_OF1-36" value="&lt;font style=&quot;color: rgb(0, 0, 0);&quot;&gt;Enroll in Course&lt;/font&gt;" style="ellipse;whiteSpace=wrap;html=1;fillColor=#f5f5f5;strokeColor=#000000;fontColor=#333333;" parent="1" vertex="1">
          <mxGeometry x="127" y="189" width="120" height="41" as="geometry" />
        </mxCell>
        <mxCell id="p1Tyolbjlcrftdn2_OF1-39" value="" style="endArrow=none;html=1;rounded=0;entryX=0.038;entryY=0.702;entryDx=0;entryDy=0;exitX=0.5;exitY=0.5;exitDx=0;exitDy=0;exitPerimeter=0;fillColor=#f5f5f5;strokeColor=#666666;entryPerimeter=0;" parent="1" source="p1Tyolbjlcrftdn2_OF1-5" target="p1Tyolbjlcrftdn2_OF1-36" edge="1">
          <mxGeometry width="50" height="50" relative="1" as="geometry">
            <mxPoint x="95" y="296" as="sourcePoint" />
            <mxPoint x="221" y="299" as="targetPoint" />
          </mxGeometry>
        </mxCell>
        <mxCell id="p1Tyolbjlcrftdn2_OF1-40" value="" style="endArrow=none;html=1;rounded=0;entryX=0;entryY=0.5;entryDx=0;entryDy=0;exitX=0.5;exitY=0.483;exitDx=0;exitDy=0;exitPerimeter=0;fillColor=#f5f5f5;strokeColor=#666666;" parent="1" source="p1Tyolbjlcrftdn2_OF1-5" target="p1Tyolbjlcrftdn2_OF1-28" edge="1">
          <mxGeometry width="50" height="50" relative="1" as="geometry">
            <mxPoint x="73" y="289" as="sourcePoint" />
            <mxPoint x="199" y="292" as="targetPoint" />
          </mxGeometry>
        </mxCell>
        <mxCell id="p1Tyolbjlcrftdn2_OF1-41" value="" style="endArrow=none;html=1;rounded=0;entryX=0;entryY=0.5;entryDx=0;entryDy=0;exitX=0.5;exitY=0.5;exitDx=0;exitDy=0;exitPerimeter=0;fillColor=#f5f5f5;strokeColor=#666666;" parent="1" source="p1Tyolbjlcrftdn2_OF1-5" target="p1Tyolbjlcrftdn2_OF1-35" edge="1">
          <mxGeometry width="50" height="50" relative="1" as="geometry">
            <mxPoint x="122" y="368" as="sourcePoint" />
            <mxPoint x="238" y="297" as="targetPoint" />
          </mxGeometry>
        </mxCell>
        <mxCell id="p1Tyolbjlcrftdn2_OF1-42" value="" style="endArrow=none;html=1;rounded=0;entryX=0;entryY=0.5;entryDx=0;entryDy=0;exitX=0.5;exitY=0.5;exitDx=0;exitDy=0;exitPerimeter=0;fillColor=#f5f5f5;strokeColor=#666666;" parent="1" source="p1Tyolbjlcrftdn2_OF1-5" target="p1Tyolbjlcrftdn2_OF1-29" edge="1">
          <mxGeometry width="50" height="50" relative="1" as="geometry">
            <mxPoint x="123" y="314" as="sourcePoint" />
            <mxPoint x="234" y="284" as="targetPoint" />
          </mxGeometry>
        </mxCell>
        <mxCell id="p1Tyolbjlcrftdn2_OF1-43" value="" style="endArrow=none;html=1;rounded=0;entryX=0;entryY=0.5;entryDx=0;entryDy=0;exitX=0.5;exitY=0.5;exitDx=0;exitDy=0;exitPerimeter=0;fillColor=#f5f5f5;strokeColor=#666666;" parent="1" source="p1Tyolbjlcrftdn2_OF1-5" target="p1Tyolbjlcrftdn2_OF1-33" edge="1">
          <mxGeometry width="50" height="50" relative="1" as="geometry">
            <mxPoint x="119" y="348" as="sourcePoint" />
            <mxPoint x="230" y="318" as="targetPoint" />
          </mxGeometry>
        </mxCell>
        <mxCell id="p1Tyolbjlcrftdn2_OF1-44" value="" style="endArrow=none;html=1;rounded=0;entryX=0;entryY=0.5;entryDx=0;entryDy=0;fillColor=#f5f5f5;strokeColor=#666666;exitX=0.5;exitY=0.5;exitDx=0;exitDy=0;exitPerimeter=0;" parent="1" source="p1Tyolbjlcrftdn2_OF1-5" target="p1Tyolbjlcrftdn2_OF1-34" edge="1">
          <mxGeometry width="50" height="50" relative="1" as="geometry">
            <mxPoint x="63" y="409" as="sourcePoint" />
            <mxPoint x="223" y="362" as="targetPoint" />
          </mxGeometry>
        </mxCell>
        <mxCell id="p1Tyolbjlcrftdn2_OF1-45" value="" style="endArrow=none;html=1;rounded=0;entryX=0.072;entryY=0.244;entryDx=0;entryDy=0;exitX=0.5;exitY=0.5;exitDx=0;exitDy=0;exitPerimeter=0;fillColor=#f5f5f5;strokeColor=#666666;entryPerimeter=0;" parent="1" source="p1Tyolbjlcrftdn2_OF1-5" target="p1Tyolbjlcrftdn2_OF1-32" edge="1">
          <mxGeometry width="50" height="50" relative="1" as="geometry">
            <mxPoint x="111" y="359" as="sourcePoint" />
            <mxPoint x="222" y="389" as="targetPoint" />
          </mxGeometry>
        </mxCell>
        <mxCell id="p1Tyolbjlcrftdn2_OF1-46" value="" style="endArrow=none;html=1;rounded=0;entryX=0;entryY=0;entryDx=0;entryDy=0;exitX=0.5;exitY=0.5;exitDx=0;exitDy=0;exitPerimeter=0;fillColor=#f5f5f5;strokeColor=#666666;" parent="1" source="p1Tyolbjlcrftdn2_OF1-5" target="p1Tyolbjlcrftdn2_OF1-30" edge="1">
          <mxGeometry width="50" height="50" relative="1" as="geometry">
            <mxPoint x="118" y="424" as="sourcePoint" />
            <mxPoint x="229" y="454" as="targetPoint" />
          </mxGeometry>
        </mxCell>
        <mxCell id="p1Tyolbjlcrftdn2_OF1-49" value="&lt;font style=&quot;color: rgb(0, 0, 0);&quot;&gt;Evaluate assignments&lt;/font&gt;" style="ellipse;whiteSpace=wrap;html=1;fillColor=#f5f5f5;strokeColor=#000000;fontColor=#333333;" parent="1" vertex="1">
          <mxGeometry x="111" y="964" width="124" height="47" as="geometry" />
        </mxCell>
        <mxCell id="p1Tyolbjlcrftdn2_OF1-50" value="&lt;font style=&quot;color: rgb(0, 0, 0);&quot;&gt;View students grades&lt;/font&gt;" style="ellipse;whiteSpace=wrap;html=1;fillColor=#f5f5f5;strokeColor=#000000;fontColor=#333333;" parent="1" vertex="1">
          <mxGeometry x="114" y="1021" width="125" height="46" as="geometry" />
        </mxCell>
        <mxCell id="p1Tyolbjlcrftdn2_OF1-51" value="&lt;font style=&quot;color: rgb(0, 0, 0);&quot;&gt;Analyze the performance of students&lt;/font&gt;" style="ellipse;whiteSpace=wrap;html=1;fillColor=#f5f5f5;strokeColor=#000000;fontColor=#333333;" parent="1" vertex="1">
          <mxGeometry x="116" y="910" width="120" height="48" as="geometry" />
        </mxCell>
        <mxCell id="p1Tyolbjlcrftdn2_OF1-52" value="&lt;font style=&quot;color: rgb(0, 0, 0);&quot;&gt;Add assistant teachers&lt;/font&gt;" style="ellipse;whiteSpace=wrap;html=1;fillColor=#f5f5f5;strokeColor=#000000;fontColor=#333333;" parent="1" vertex="1">
          <mxGeometry x="338" y="702" width="120" height="41" as="geometry" />
        </mxCell>
        <mxCell id="p1Tyolbjlcrftdn2_OF1-53" value="&lt;font style=&quot;color: rgb(0, 0, 0);&quot;&gt;Edit course info&lt;/font&gt;" style="ellipse;whiteSpace=wrap;html=1;fillColor=#f5f5f5;strokeColor=#000000;fontColor=#333333;" parent="1" vertex="1">
          <mxGeometry x="338" y="772" width="120" height="41" as="geometry" />
        </mxCell>
        <mxCell id="p1Tyolbjlcrftdn2_OF1-54" value="&lt;font style=&quot;color: rgb(0, 0, 0);&quot;&gt;Communicate with students&lt;/font&gt;" style="ellipse;whiteSpace=wrap;html=1;fillColor=#f5f5f5;strokeColor=#000000;fontColor=#333333;" parent="1" vertex="1">
          <mxGeometry x="112" y="786" width="120" height="41" as="geometry" />
        </mxCell>
        <mxCell id="p1Tyolbjlcrftdn2_OF1-55" value="&lt;font style=&quot;color: rgb(0, 0, 0);&quot;&gt;Create assignments&lt;/font&gt;" style="ellipse;whiteSpace=wrap;html=1;fillColor=#f5f5f5;strokeColor=#000000;fontColor=#333333;" parent="1" vertex="1">
          <mxGeometry x="116" y="861" width="120" height="41" as="geometry" />
        </mxCell>
        <mxCell id="p1Tyolbjlcrftdn2_OF1-56" value="&lt;font style=&quot;color: rgb(0, 0, 0);&quot;&gt;Manage Course&lt;/font&gt;" style="ellipse;whiteSpace=wrap;html=1;fillColor=#f5f5f5;strokeColor=#000000;fontColor=#333333;" parent="1" vertex="1">
          <mxGeometry x="102" y="736" width="120" height="41" as="geometry" />
        </mxCell>
        <mxCell id="p1Tyolbjlcrftdn2_OF1-57" value="&lt;font style=&quot;color: rgb(0, 0, 0);&quot;&gt;Create Course&lt;/font&gt;" style="ellipse;whiteSpace=wrap;html=1;fillColor=#f5f5f5;strokeColor=#000000;fontColor=#333333;" parent="1" vertex="1">
          <mxGeometry x="108" y="616" width="120" height="41" as="geometry" />
        </mxCell>
        <mxCell id="p1Tyolbjlcrftdn2_OF1-59" value="" style="endArrow=none;html=1;rounded=0;entryX=0;entryY=0.5;entryDx=0;entryDy=0;exitX=0.5;exitY=0.5;exitDx=0;exitDy=0;exitPerimeter=0;fillColor=#f5f5f5;strokeColor=#666666;" parent="1" source="p1Tyolbjlcrftdn2_OF1-4" target="p1Tyolbjlcrftdn2_OF1-57" edge="1">
          <mxGeometry width="50" height="50" relative="1" as="geometry">
            <mxPoint x="442" y="509" as="sourcePoint" />
            <mxPoint x="568" y="647" as="targetPoint" />
          </mxGeometry>
        </mxCell>
        <mxCell id="p1Tyolbjlcrftdn2_OF1-60" value="" style="endArrow=none;html=1;rounded=0;entryX=0.065;entryY=0.712;entryDx=0;entryDy=0;exitX=0.5;exitY=0.5;exitDx=0;exitDy=0;exitPerimeter=0;fillColor=#f5f5f5;strokeColor=#666666;entryPerimeter=0;" parent="1" source="p1Tyolbjlcrftdn2_OF1-4" target="p1Tyolbjlcrftdn2_OF1-56" edge="1">
          <mxGeometry width="50" height="50" relative="1" as="geometry">
            <mxPoint x="122" y="610" as="sourcePoint" />
            <mxPoint x="248" y="748" as="targetPoint" />
          </mxGeometry>
        </mxCell>
        <mxCell id="p1Tyolbjlcrftdn2_OF1-61" value="" style="endArrow=none;html=1;rounded=0;exitX=0.5;exitY=0.5;exitDx=0;exitDy=0;exitPerimeter=0;fillColor=#f5f5f5;strokeColor=#666666;entryX=0;entryY=0.5;entryDx=0;entryDy=0;" parent="1" source="p1Tyolbjlcrftdn2_OF1-4" target="p1Tyolbjlcrftdn2_OF1-54" edge="1">
          <mxGeometry width="50" height="50" relative="1" as="geometry">
            <mxPoint x="100" y="600" as="sourcePoint" />
            <mxPoint x="181" y="569" as="targetPoint" />
          </mxGeometry>
        </mxCell>
        <mxCell id="p1Tyolbjlcrftdn2_OF1-62" value="" style="endArrow=none;html=1;rounded=0;exitX=0.5;exitY=0.5;exitDx=0;exitDy=0;exitPerimeter=0;fillColor=#f5f5f5;strokeColor=#666666;entryX=0;entryY=0.5;entryDx=0;entryDy=0;" parent="1" source="p1Tyolbjlcrftdn2_OF1-4" target="p1Tyolbjlcrftdn2_OF1-55" edge="1">
          <mxGeometry width="50" height="50" relative="1" as="geometry">
            <mxPoint x="148" y="614" as="sourcePoint" />
            <mxPoint x="342" y="598" as="targetPoint" />
          </mxGeometry>
        </mxCell>
        <mxCell id="p1Tyolbjlcrftdn2_OF1-65" value="" style="endArrow=none;html=1;rounded=0;exitX=0.5;exitY=0.5;exitDx=0;exitDy=0;exitPerimeter=0;fillColor=#f5f5f5;strokeColor=#666666;entryX=0;entryY=0.5;entryDx=0;entryDy=0;" parent="1" source="p1Tyolbjlcrftdn2_OF1-4" target="p1Tyolbjlcrftdn2_OF1-51" edge="1">
          <mxGeometry width="50" height="50" relative="1" as="geometry">
            <mxPoint x="88" y="697" as="sourcePoint" />
            <mxPoint x="282" y="681" as="targetPoint" />
          </mxGeometry>
        </mxCell>
        <mxCell id="p1Tyolbjlcrftdn2_OF1-67" value="" style="endArrow=none;html=1;rounded=0;exitX=0.5;exitY=0.5;exitDx=0;exitDy=0;exitPerimeter=0;fillColor=#f5f5f5;strokeColor=#666666;entryX=0;entryY=0;entryDx=0;entryDy=0;" parent="1" source="p1Tyolbjlcrftdn2_OF1-4" target="p1Tyolbjlcrftdn2_OF1-49" edge="1">
          <mxGeometry width="50" height="50" relative="1" as="geometry">
            <mxPoint x="123" y="739" as="sourcePoint" />
            <mxPoint x="317" y="723" as="targetPoint" />
          </mxGeometry>
        </mxCell>
        <mxCell id="p1Tyolbjlcrftdn2_OF1-68" value="" style="endArrow=none;html=1;rounded=0;exitX=0.5;exitY=0.5;exitDx=0;exitDy=0;exitPerimeter=0;fillColor=#f5f5f5;strokeColor=#666666;entryX=0;entryY=0.5;entryDx=0;entryDy=0;" parent="1" source="p1Tyolbjlcrftdn2_OF1-4" target="p1Tyolbjlcrftdn2_OF1-50" edge="1">
          <mxGeometry width="50" height="50" relative="1" as="geometry">
            <mxPoint x="96" y="755" as="sourcePoint" />
            <mxPoint x="290" y="739" as="targetPoint" />
          </mxGeometry>
        </mxCell>
        <mxCell id="p1Tyolbjlcrftdn2_OF1-69" value="&lt;font style=&quot;font-size: 16px; color: rgb(0, 0, 0);&quot;&gt;Admin&lt;/font&gt;" style="shape=umlActor;verticalLabelPosition=bottom;verticalAlign=top;html=1;outlineConnect=0;strokeColor=#36393d;fillColor=#f9f7ed;" parent="1" vertex="1">
          <mxGeometry x="783" y="340" width="30" height="61" as="geometry" />
        </mxCell>
        <mxCell id="p1Tyolbjlcrftdn2_OF1-70" value="&lt;font style=&quot;color: rgb(0, 0, 0);&quot;&gt;Generate System Performance Reports&lt;/font&gt;" style="ellipse;whiteSpace=wrap;html=1;fillColor=#f5f5f5;strokeColor=#000000;fontColor=#333333;" parent="1" vertex="1">
          <mxGeometry x="627" y="341.5" width="123" height="52" as="geometry" />
        </mxCell>
        <mxCell id="p1Tyolbjlcrftdn2_OF1-71" value="&lt;font style=&quot;color: rgb(0, 0, 0);&quot;&gt;Handle user Complaints&lt;/font&gt;" style="ellipse;whiteSpace=wrap;html=1;fillColor=#f5f5f5;strokeColor=#000000;fontColor=#333333;" parent="1" vertex="1">
          <mxGeometry x="633" y="104" width="120" height="51" as="geometry" />
        </mxCell>
        <mxCell id="p1Tyolbjlcrftdn2_OF1-72" value="&lt;font style=&quot;color: rgb(0, 0, 0);&quot;&gt;Review Content&lt;/font&gt;" style="ellipse;whiteSpace=wrap;html=1;fillColor=#f5f5f5;strokeColor=#000000;fontColor=#333333;" parent="1" vertex="1">
          <mxGeometry x="624" y="282" width="120" height="41" as="geometry" />
        </mxCell>
        <mxCell id="p1Tyolbjlcrftdn2_OF1-73" value="&lt;font style=&quot;color: rgb(0, 0, 0);&quot;&gt;Manage users&lt;/font&gt;" style="ellipse;whiteSpace=wrap;html=1;fillColor=#f5f5f5;strokeColor=#000000;fontColor=#333333;" parent="1" vertex="1">
          <mxGeometry x="630" y="428" width="120" height="41" as="geometry" />
        </mxCell>
        <mxCell id="p1Tyolbjlcrftdn2_OF1-74" value="" style="endArrow=none;html=1;rounded=0;entryX=0.5;entryY=0.5;entryDx=0;entryDy=0;exitX=1;exitY=0.5;exitDx=0;exitDy=0;fillColor=#f5f5f5;strokeColor=#666666;entryPerimeter=0;" parent="1" source="p1Tyolbjlcrftdn2_OF1-73" target="p1Tyolbjlcrftdn2_OF1-69" edge="1">
          <mxGeometry width="50" height="50" relative="1" as="geometry">
            <mxPoint x="681" y="328" as="sourcePoint" />
            <mxPoint x="754" y="243" as="targetPoint" />
          </mxGeometry>
        </mxCell>
        <mxCell id="p1Tyolbjlcrftdn2_OF1-76" value="" style="endArrow=none;html=1;rounded=0;entryX=0.5;entryY=0.5;entryDx=0;entryDy=0;exitX=1;exitY=0.5;exitDx=0;exitDy=0;fillColor=#f5f5f5;strokeColor=#666666;entryPerimeter=0;" parent="1" source="p1Tyolbjlcrftdn2_OF1-72" target="p1Tyolbjlcrftdn2_OF1-69" edge="1">
          <mxGeometry width="50" height="50" relative="1" as="geometry">
            <mxPoint x="654" y="259" as="sourcePoint" />
            <mxPoint x="775" y="330" as="targetPoint" />
          </mxGeometry>
        </mxCell>
        <mxCell id="p1Tyolbjlcrftdn2_OF1-77" value="" style="endArrow=none;html=1;rounded=0;entryX=0.5;entryY=0.5;entryDx=0;entryDy=0;exitX=1;exitY=0.5;exitDx=0;exitDy=0;fillColor=#f5f5f5;strokeColor=#666666;entryPerimeter=0;" parent="1" source="p1Tyolbjlcrftdn2_OF1-70" target="p1Tyolbjlcrftdn2_OF1-69" edge="1">
          <mxGeometry width="50" height="50" relative="1" as="geometry">
            <mxPoint x="679" y="280" as="sourcePoint" />
            <mxPoint x="800" y="280" as="targetPoint" />
          </mxGeometry>
        </mxCell>
        <mxCell id="p1Tyolbjlcrftdn2_OF1-78" value="" style="endArrow=none;html=1;rounded=0;entryX=0.5;entryY=0.5;entryDx=0;entryDy=0;exitX=1;exitY=0.5;exitDx=0;exitDy=0;fillColor=#f5f5f5;strokeColor=#666666;entryPerimeter=0;" parent="1" source="p1Tyolbjlcrftdn2_OF1-71" target="p1Tyolbjlcrftdn2_OF1-69" edge="1">
          <mxGeometry width="50" height="50" relative="1" as="geometry">
            <mxPoint x="642" y="378" as="sourcePoint" />
            <mxPoint x="761" y="325" as="targetPoint" />
          </mxGeometry>
        </mxCell>
        <mxCell id="IDu_BR7YjD5mb9U_oqx9-1" value="include" style="html=1;verticalAlign=bottom;endArrow=open;dashed=1;endSize=8;curved=0;rounded=0;exitX=1;exitY=0.5;exitDx=0;exitDy=0;entryX=0;entryY=0.5;entryDx=0;entryDy=0;" parent="1" source="p1Tyolbjlcrftdn2_OF1-19" target="IDu_BR7YjD5mb9U_oqx9-3" edge="1">
          <mxGeometry relative="1" as="geometry">
            <mxPoint x="453" y="229" as="sourcePoint" />
            <mxPoint x="373" y="229" as="targetPoint" />
          </mxGeometry>
        </mxCell>
        <mxCell id="IDu_BR7YjD5mb9U_oqx9-3" value="&lt;font color=&quot;#000000&quot;&gt;Check DB&lt;/font&gt;" style="ellipse;whiteSpace=wrap;html=1;fillColor=#f5f5f5;strokeColor=#000000;fontColor=#333333;" parent="1" vertex="1">
          <mxGeometry x="327" y="25" width="120" height="42" as="geometry" />
        </mxCell>
        <mxCell id="IDu_BR7YjD5mb9U_oqx9-4" value="include" style="html=1;verticalAlign=bottom;endArrow=open;dashed=1;endSize=8;curved=0;rounded=0;exitX=1;exitY=0.5;exitDx=0;exitDy=0;entryX=0;entryY=0.5;entryDx=0;entryDy=0;" parent="1" source="p1Tyolbjlcrftdn2_OF1-21" target="IDu_BR7YjD5mb9U_oqx9-5" edge="1">
          <mxGeometry relative="1" as="geometry">
            <mxPoint x="399" y="86" as="sourcePoint" />
            <mxPoint x="467" y="85" as="targetPoint" />
          </mxGeometry>
        </mxCell>
        <mxCell id="IDu_BR7YjD5mb9U_oqx9-5" value="&lt;font color=&quot;#000000&quot;&gt;Validate inputs&lt;/font&gt;" style="ellipse;whiteSpace=wrap;html=1;fillColor=#f5f5f5;strokeColor=#000000;fontColor=#333333;" parent="1" vertex="1">
          <mxGeometry x="329" y="73.5" width="120" height="42" as="geometry" />
        </mxCell>
        <mxCell id="IDu_BR7YjD5mb9U_oqx9-6" value="&lt;font style=&quot;color: rgb(0, 0, 0);&quot;&gt;Search filtered by category&amp;nbsp;&lt;/font&gt;" style="ellipse;whiteSpace=wrap;html=1;fillColor=#f5f5f5;strokeColor=#000000;fontColor=#333333;" parent="1" vertex="1">
          <mxGeometry x="373" y="135" width="120" height="41" as="geometry" />
        </mxCell>
        <mxCell id="IDu_BR7YjD5mb9U_oqx9-7" value="extend" style="html=1;verticalAlign=bottom;endArrow=open;dashed=1;endSize=8;curved=0;rounded=0;exitX=0;exitY=0.5;exitDx=0;exitDy=0;entryX=1;entryY=0.5;entryDx=0;entryDy=0;" parent="1" source="IDu_BR7YjD5mb9U_oqx9-6" target="p1Tyolbjlcrftdn2_OF1-28" edge="1">
          <mxGeometry relative="1" as="geometry">
            <mxPoint x="407" y="113" as="sourcePoint" />
            <mxPoint x="477" y="110" as="targetPoint" />
          </mxGeometry>
        </mxCell>
        <mxCell id="IDu_BR7YjD5mb9U_oqx9-8" value="include" style="html=1;verticalAlign=bottom;endArrow=open;dashed=1;endSize=8;curved=0;rounded=0;exitX=1;exitY=0.5;exitDx=0;exitDy=0;entryX=0;entryY=0.5;entryDx=0;entryDy=0;" parent="1" source="p1Tyolbjlcrftdn2_OF1-36" target="IDu_BR7YjD5mb9U_oqx9-9" edge="1">
          <mxGeometry relative="1" as="geometry">
            <mxPoint x="322" y="208" as="sourcePoint" />
            <mxPoint x="392" y="205" as="targetPoint" />
          </mxGeometry>
        </mxCell>
        <mxCell id="IDu_BR7YjD5mb9U_oqx9-9" value="&lt;font color=&quot;#000000&quot;&gt;pay the course fees&lt;/font&gt;" style="ellipse;whiteSpace=wrap;html=1;fillColor=#f5f5f5;strokeColor=#000000;fontColor=#333333;" parent="1" vertex="1">
          <mxGeometry x="416" y="186" width="120" height="42" as="geometry" />
        </mxCell>
        <mxCell id="IDu_BR7YjD5mb9U_oqx9-10" value="include" style="html=1;verticalAlign=bottom;endArrow=open;dashed=1;endSize=8;curved=0;rounded=0;exitX=1;exitY=0.5;exitDx=0;exitDy=0;entryX=0;entryY=0.5;entryDx=0;entryDy=0;" parent="1" source="p1Tyolbjlcrftdn2_OF1-32" target="IDu_BR7YjD5mb9U_oqx9-11" edge="1">
          <mxGeometry relative="1" as="geometry">
            <mxPoint x="299" y="386" as="sourcePoint" />
            <mxPoint x="414" y="385" as="targetPoint" />
          </mxGeometry>
        </mxCell>
        <mxCell id="IDu_BR7YjD5mb9U_oqx9-11" value="&lt;font style=&quot;color: rgb(0, 0, 0);&quot;&gt;Submit file&lt;/font&gt;" style="ellipse;whiteSpace=wrap;html=1;fillColor=#f5f5f5;strokeColor=#000000;fontColor=#333333;" parent="1" vertex="1">
          <mxGeometry x="308" y="422" width="120" height="41" as="geometry" />
        </mxCell>
        <mxCell id="IDu_BR7YjD5mb9U_oqx9-12" value="&lt;font style=&quot;color: rgb(0, 0, 0);&quot;&gt;Make a complaint&lt;/font&gt;" style="ellipse;whiteSpace=wrap;html=1;fillColor=#f5f5f5;strokeColor=#000000;fontColor=#333333;" parent="1" vertex="1">
          <mxGeometry x="345" y="299" width="120" height="41" as="geometry" />
        </mxCell>
        <mxCell id="IDu_BR7YjD5mb9U_oqx9-13" value="extend" style="html=1;verticalAlign=bottom;endArrow=open;dashed=1;endSize=8;curved=0;rounded=0;exitX=0;exitY=0.5;exitDx=0;exitDy=0;entryX=1;entryY=0.5;entryDx=0;entryDy=0;" parent="1" source="IDu_BR7YjD5mb9U_oqx9-12" target="p1Tyolbjlcrftdn2_OF1-29" edge="1">
          <mxGeometry relative="1" as="geometry">
            <mxPoint x="403" y="334" as="sourcePoint" />
            <mxPoint x="331" y="340" as="targetPoint" />
          </mxGeometry>
        </mxCell>
        <mxCell id="IDu_BR7YjD5mb9U_oqx9-15" value="&lt;font style=&quot;color: rgb(0, 0, 0);&quot;&gt;Change password&lt;/font&gt;" style="ellipse;whiteSpace=wrap;html=1;fillColor=#f5f5f5;strokeColor=#000000;fontColor=#333333;" parent="1" vertex="1">
          <mxGeometry x="299" y="533" width="120" height="41" as="geometry" />
        </mxCell>
        <mxCell id="IDu_BR7YjD5mb9U_oqx9-16" value="&lt;font style=&quot;color: rgb(0, 0, 0);&quot;&gt;Change username&lt;/font&gt;" style="ellipse;whiteSpace=wrap;html=1;fillColor=#f5f5f5;strokeColor=#000000;fontColor=#333333;" parent="1" vertex="1">
          <mxGeometry x="286" y="472" width="120" height="41" as="geometry" />
        </mxCell>
        <mxCell id="IDu_BR7YjD5mb9U_oqx9-17" value="extend" style="html=1;verticalAlign=bottom;endArrow=open;dashed=1;endSize=8;curved=0;rounded=0;exitX=0;exitY=0.5;exitDx=0;exitDy=0;entryX=1;entryY=0.5;entryDx=0;entryDy=0;" parent="1" source="IDu_BR7YjD5mb9U_oqx9-16" target="p1Tyolbjlcrftdn2_OF1-30" edge="1">
          <mxGeometry relative="1" as="geometry">
            <mxPoint x="352" y="482" as="sourcePoint" />
            <mxPoint x="287" y="482" as="targetPoint" />
          </mxGeometry>
        </mxCell>
        <mxCell id="IDu_BR7YjD5mb9U_oqx9-18" value="extend" style="html=1;verticalAlign=bottom;endArrow=open;dashed=1;endSize=8;curved=0;rounded=0;exitX=0;exitY=0.5;exitDx=0;exitDy=0;entryX=1;entryY=0.5;entryDx=0;entryDy=0;" parent="1" source="IDu_BR7YjD5mb9U_oqx9-15" target="p1Tyolbjlcrftdn2_OF1-30" edge="1">
          <mxGeometry relative="1" as="geometry">
            <mxPoint x="314" y="536" as="sourcePoint" />
            <mxPoint x="276" y="540" as="targetPoint" />
          </mxGeometry>
        </mxCell>
        <mxCell id="IDu_BR7YjD5mb9U_oqx9-19" value="&lt;font style=&quot;color: rgb(0, 0, 0);&quot;&gt;Upload content&lt;/font&gt;" style="ellipse;whiteSpace=wrap;html=1;fillColor=#f5f5f5;strokeColor=#000000;fontColor=#333333;" parent="1" vertex="1">
          <mxGeometry x="301" y="595" width="120" height="41" as="geometry" />
        </mxCell>
        <mxCell id="IDu_BR7YjD5mb9U_oqx9-20" value="&lt;font style=&quot;color: rgb(0, 0, 0);&quot;&gt;Set the course fees&lt;/font&gt;" style="ellipse;whiteSpace=wrap;html=1;fillColor=#f5f5f5;strokeColor=#000000;fontColor=#333333;" parent="1" vertex="1">
          <mxGeometry x="301" y="645" width="120" height="41" as="geometry" />
        </mxCell>
        <mxCell id="IDu_BR7YjD5mb9U_oqx9-21" value="include" style="html=1;verticalAlign=bottom;endArrow=open;dashed=1;endSize=8;curved=0;rounded=0;exitX=1;exitY=0.5;exitDx=0;exitDy=0;entryX=0;entryY=0.5;entryDx=0;entryDy=0;" parent="1" source="p1Tyolbjlcrftdn2_OF1-57" target="IDu_BR7YjD5mb9U_oqx9-19" edge="1">
          <mxGeometry relative="1" as="geometry">
            <mxPoint x="260" y="616" as="sourcePoint" />
            <mxPoint x="326" y="624" as="targetPoint" />
          </mxGeometry>
        </mxCell>
        <mxCell id="IDu_BR7YjD5mb9U_oqx9-22" value="include" style="html=1;verticalAlign=bottom;endArrow=open;dashed=1;endSize=8;curved=0;rounded=0;exitX=1;exitY=0.5;exitDx=0;exitDy=0;entryX=0;entryY=0.5;entryDx=0;entryDy=0;" parent="1" source="p1Tyolbjlcrftdn2_OF1-57" target="IDu_BR7YjD5mb9U_oqx9-20" edge="1">
          <mxGeometry relative="1" as="geometry">
            <mxPoint x="267" y="651" as="sourcePoint" />
            <mxPoint x="291" y="643" as="targetPoint" />
          </mxGeometry>
        </mxCell>
        <mxCell id="IDu_BR7YjD5mb9U_oqx9-24" value="extend" style="html=1;verticalAlign=bottom;endArrow=open;dashed=1;endSize=8;curved=0;rounded=0;exitX=0;exitY=0.5;exitDx=0;exitDy=0;entryX=1;entryY=0.5;entryDx=0;entryDy=0;" parent="1" source="p1Tyolbjlcrftdn2_OF1-52" target="p1Tyolbjlcrftdn2_OF1-56" edge="1">
          <mxGeometry relative="1" as="geometry">
            <mxPoint x="349" y="803" as="sourcePoint" />
            <mxPoint x="258" y="749" as="targetPoint" />
          </mxGeometry>
        </mxCell>
        <mxCell id="IDu_BR7YjD5mb9U_oqx9-25" value="extend" style="html=1;verticalAlign=bottom;endArrow=open;dashed=1;endSize=8;curved=0;rounded=0;exitX=0;exitY=0.5;exitDx=0;exitDy=0;entryX=1;entryY=0.5;entryDx=0;entryDy=0;" parent="1" source="p1Tyolbjlcrftdn2_OF1-53" target="p1Tyolbjlcrftdn2_OF1-56" edge="1">
          <mxGeometry relative="1" as="geometry">
            <mxPoint x="672" y="762" as="sourcePoint" />
            <mxPoint x="342" y="853" as="targetPoint" />
          </mxGeometry>
        </mxCell>
        <mxCell id="IDu_BR7YjD5mb9U_oqx9-26" value="&lt;font style=&quot;color: rgb(0, 0, 0);&quot;&gt;Review the students complaints&lt;/font&gt;" style="ellipse;whiteSpace=wrap;html=1;fillColor=#f5f5f5;strokeColor=#000000;fontColor=#333333;" parent="1" vertex="1">
          <mxGeometry x="268" y="825" width="120" height="41" as="geometry" />
        </mxCell>
        <mxCell id="IDu_BR7YjD5mb9U_oqx9-27" value="" style="endArrow=none;html=1;rounded=0;entryX=0;entryY=0.5;entryDx=0;entryDy=0;exitX=0.5;exitY=0.5;exitDx=0;exitDy=0;exitPerimeter=0;fillColor=#f5f5f5;strokeColor=#666666;" parent="1" source="p1Tyolbjlcrftdn2_OF1-4" target="IDu_BR7YjD5mb9U_oqx9-26" edge="1">
          <mxGeometry width="50" height="50" relative="1" as="geometry">
            <mxPoint x="160" y="1064" as="sourcePoint" />
            <mxPoint x="228" y="843" as="targetPoint" />
          </mxGeometry>
        </mxCell>
        <mxCell id="IDu_BR7YjD5mb9U_oqx9-28" value="&lt;font style=&quot;color: rgb(0, 0, 0);&quot;&gt;Block users&lt;/font&gt;" style="ellipse;whiteSpace=wrap;html=1;fillColor=#f5f5f5;strokeColor=#000000;fontColor=#333333;" parent="1" vertex="1">
          <mxGeometry x="465" y="436" width="120" height="41" as="geometry" />
        </mxCell>
        <mxCell id="IDu_BR7YjD5mb9U_oqx9-29" value="extend" style="html=1;verticalAlign=bottom;endArrow=open;dashed=1;endSize=8;curved=0;rounded=0;exitX=1;exitY=0;exitDx=0;exitDy=0;entryX=0;entryY=0.5;entryDx=0;entryDy=0;" parent="1" source="IDu_BR7YjD5mb9U_oqx9-28" target="p1Tyolbjlcrftdn2_OF1-73" edge="1">
          <mxGeometry relative="1" as="geometry">
            <mxPoint x="707" y="476" as="sourcePoint" />
            <mxPoint x="604" y="473" as="targetPoint" />
          </mxGeometry>
        </mxCell>
        <mxCell id="IDu_BR7YjD5mb9U_oqx9-30" value="&lt;font style=&quot;color: rgb(0, 0, 0);&quot;&gt;Ask the insctructor to edit the content&lt;/font&gt;" style="ellipse;whiteSpace=wrap;html=1;fillColor=#f5f5f5;strokeColor=#000000;fontColor=#333333;" parent="1" vertex="1">
          <mxGeometry x="467" y="340" width="130" height="53" as="geometry" />
        </mxCell>
        <mxCell id="IDu_BR7YjD5mb9U_oqx9-31" value="extend" style="html=1;verticalAlign=bottom;endArrow=open;dashed=1;endSize=8;curved=0;rounded=0;exitX=1;exitY=0.5;exitDx=0;exitDy=0;entryX=0;entryY=0.5;entryDx=0;entryDy=0;" parent="1" source="IDu_BR7YjD5mb9U_oqx9-30" target="p1Tyolbjlcrftdn2_OF1-72" edge="1">
          <mxGeometry relative="1" as="geometry">
            <mxPoint x="590" y="358" as="sourcePoint" />
            <mxPoint x="607" y="303" as="targetPoint" />
          </mxGeometry>
        </mxCell>
        <mxCell id="IDu_BR7YjD5mb9U_oqx9-32" value="&lt;font style=&quot;color: rgb(0, 0, 0);&quot;&gt;Forward the complaints on the degrees to the instructors&lt;/font&gt;" style="ellipse;whiteSpace=wrap;html=1;fillColor=#f5f5f5;strokeColor=#000000;fontColor=#333333;" parent="1" vertex="1">
          <mxGeometry x="479" y="32" width="158" height="68" as="geometry" />
        </mxCell>
        <mxCell id="IDu_BR7YjD5mb9U_oqx9-33" value="include" style="html=1;verticalAlign=bottom;endArrow=open;dashed=1;endSize=8;curved=0;rounded=0;exitX=0.5;exitY=0;exitDx=0;exitDy=0;entryX=0.987;entryY=0.618;entryDx=0;entryDy=0;entryPerimeter=0;" parent="1" source="p1Tyolbjlcrftdn2_OF1-71" target="IDu_BR7YjD5mb9U_oqx9-32" edge="1">
          <mxGeometry relative="1" as="geometry">
            <mxPoint x="626" y="100" as="sourcePoint" />
            <mxPoint x="706" y="100" as="targetPoint" />
          </mxGeometry>
        </mxCell>
        <mxCell id="dAG8awZt-FboegKTJEZN-1" value="&lt;font color=&quot;#000000&quot;&gt;upload file&lt;/font&gt;" style="ellipse;whiteSpace=wrap;html=1;fillColor=#f5f5f5;strokeColor=#000000;fontColor=#333333;" parent="1" vertex="1">
          <mxGeometry x="364" y="885" width="120" height="41" as="geometry" />
        </mxCell>
        <mxCell id="dAG8awZt-FboegKTJEZN-2" value="include" style="html=1;verticalAlign=bottom;endArrow=open;dashed=1;endSize=8;curved=0;rounded=0;exitX=1;exitY=0.5;exitDx=0;exitDy=0;entryX=0;entryY=0.5;entryDx=0;entryDy=0;" parent="1" source="p1Tyolbjlcrftdn2_OF1-55" target="dAG8awZt-FboegKTJEZN-1" edge="1">
          <mxGeometry relative="1" as="geometry">
            <mxPoint x="251" y="893" as="sourcePoint" />
            <mxPoint x="324" y="922" as="targetPoint" />
          </mxGeometry>
        </mxCell>
      </root>
    </mxGraphModel>
  </diagram>
</mxfile>
